<svg width="64" height="64" viewBox="0 0 64 64" fill="none" xmlns="http://www.w3.org/2000/svg">
<path d="M38.7131 29.3242L43.4133 21.3491L56.0819 41.081L56.0879 44.8675L56.0466 18.81C56.0166 18.173 55.6783 17.5903 55.1387 17.2467L32.3305 4.12708C31.797 3.86491 31.1203 3.86769 30.5879 4.13523C30.516 4.17137 30.4482 4.2105 30.3837 4.2532L30.3042 4.30325L8.16515 17.1327L8.07915 17.1716C7.96872 17.2225 7.8571 17.287 7.75223 17.3621C7.33256 17.6632 7.05371 18.1083 6.96354 18.6076C6.95003 18.6833 6.9401 18.7603 6.93533 18.838L6.97009 40.0724L18.7703 21.7827C20.256 19.3574 23.493 18.5762 26.4978 18.6187L30.0246 18.7119L9.24482 52.0367L11.6943 53.447L32.7231 18.7457L42.0179 18.7119L21.0433 54.289L29.7839 59.3163L30.8282 59.9169C31.2699 60.0964 31.7907 60.1054 32.2361 59.9447L55.3649 46.5412L50.943 49.1036L38.7131 29.3242ZM40.5064 55.1518L31.6782 41.2961L37.0672 32.1515L48.6613 50.4257L40.5064 55.1518Z" fill="#2D374B"/>
<path d="M31.6782 41.2961L40.5064 55.1518L48.6615 50.4257L37.0674 32.1515L31.6782 41.2961Z" fill="#28A0F0"/>
<path d="M56.0879 44.8675L56.0819 41.0809L43.4133 21.3491L38.7131 29.3242L50.943 49.1035L55.3649 46.5412C55.7987 46.1891 56.061 45.6721 56.0887 45.1142L56.0879 44.8675Z" fill="#28A0F0"/>
<path d="M3.0002 48.4386L9.24462 52.0367L30.0244 18.7119L26.4976 18.6188C23.4928 18.5763 20.256 19.3574 18.7701 21.7827L6.96989 40.0724L3 46.172V48.4386H3.0002Z" fill="white"/>
<path d="M42.0177 18.7119L32.7231 18.7457L11.6943 53.4471L19.0444 57.6791L21.0433 54.289L42.0177 18.7119Z" fill="white"/>
<path d="M60.0047 18.664C59.9271 16.7202 58.8746 14.9406 57.2259 13.9047L34.1188 0.616398C32.488 -0.20487 30.4506 -0.205863 28.8172 0.615802C28.6242 0.713123 6.34586 13.6337 6.34586 13.6337C6.03761 13.7815 5.74068 13.9577 5.46123 14.1575C3.98951 15.2123 3.09237 16.8513 3.00021 18.6521V46.1722L6.9701 40.0726L6.93535 18.8382C6.94011 18.7606 6.94985 18.6843 6.96355 18.6088C7.05313 18.1091 7.33218 17.6634 7.75224 17.3623C7.85711 17.2872 30.5158 4.17158 30.5879 4.13544C31.1205 3.8679 31.7972 3.86512 32.3305 4.12729L55.1387 17.2469C55.6783 17.5905 56.0166 18.1733 56.0466 18.8102V45.1144C56.019 45.6723 55.7985 46.1891 55.3647 46.5415L50.9428 49.1038L48.6613 50.4259L40.5062 55.152L32.236 59.9449C31.7905 60.1058 31.2697 60.0968 30.828 59.9171L21.0431 54.2892L19.0442 57.6791L27.8377 62.742C28.1284 62.9072 28.3876 63.0538 28.6001 63.1734C28.9294 63.3581 29.1537 63.4814 29.2329 63.5198C29.858 63.8232 30.7571 64 31.5674 64C32.3104 64 33.0348 63.8636 33.7204 63.595L57.7417 49.6835C59.1205 48.6154 59.9317 47.0044 60.0047 45.2592V18.664Z" fill="#96BEDC"/>
</svg>
