<svg width="40" height="40" viewBox="0 0 40 40" fill="none" xmlns="http://www.w3.org/2000/svg">
<path d="M27.698 36.6666H12.3021C11.1112 36.6666 10.0109 36.0312 9.41538 34.9999L1.7173 21.6666C1.1219 20.6353 1.1219 19.3645 1.7173 18.3333L9.41536 4.99992C10.0109 3.96863 11.1112 3.33325 12.3021 3.33325H27.698C28.8888 3.33325 29.9893 3.96863 30.5848 4.99992L38.2827 18.3333C38.8782 19.3645 38.8782 20.6353 38.2827 21.6666L30.5848 34.9999C29.9893 36.0312 28.8888 36.6666 27.698 36.6666Z" fill="#0044FF"/>
<path d="M11.0413 30.0001C11.0145 30.0001 10.9874 29.995 10.9616 29.9842C10.8837 29.9521 10.833 29.876 10.833 29.7917V14.3751C10.833 13.5709 11.4873 12.9167 12.2913 12.9167H22.708C22.7922 12.9167 22.8683 12.9675 22.9004 13.0453C22.9328 13.1232 22.9149 13.2128 22.8553 13.2724L20.3553 15.7724C20.3162 15.8114 20.2633 15.8334 20.208 15.8334H13.7497V18.3334H19.7913C19.8755 18.3334 19.9516 18.3842 19.9838 18.462C20.0161 18.5399 19.9982 18.6294 19.9386 18.689L17.4386 21.189C17.3995 21.2281 17.3466 21.2501 17.2913 21.2501H13.7497V27.2917C13.7497 27.347 13.7277 27.4 13.6886 27.439L11.1886 29.939C11.1487 29.9789 11.0954 30.0001 11.0413 30.0001Z" fill="white"/>
<path d="M28.958 10C28.9849 10 29.0119 10.0051 29.0378 10.0159C29.1157 10.048 29.1663 10.1241 29.1663 10.2083V25.625C29.1663 26.4291 28.512 27.0833 27.708 27.0833H17.2914C17.2072 27.0833 17.1311 27.0326 17.0989 26.9548C17.0666 26.8768 17.0845 26.7873 17.1441 26.7277L19.6441 24.2277C19.6832 24.1886 19.736 24.1667 19.7914 24.1667H26.2497V21.6667H20.208C20.1238 21.6667 20.0477 21.6159 20.0156 21.5381C19.9832 21.4602 20.0012 21.3706 20.0608 21.311L22.5608 18.811C22.5998 18.772 22.6527 18.75 22.708 18.75H26.2497V12.7083C26.2497 12.6531 26.2717 12.6001 26.3107 12.561L28.8107 10.061C28.8506 10.0212 28.9039 10 28.958 10Z" fill="white"/>
</svg>
