<svg width="64" height="64" viewBox="0 0 64 64" fill="none" xmlns="http://www.w3.org/2000/svg">
  <circle cx="32" cy="32" r="31" fill="#F7931A"/>
  <circle cx="32" cy="32" r="30" stroke="white" stroke-opacity=".18" stroke-width="2"/>
  <path fill="#fff" d="M36.9 18.2c4.4.8 7.1 3.1 6.6 6.8-.4 2.7-1.9 4.1-4.2 4.8 3.2 1.2 4.8 3.5 4.1 7.2-.9 4.8-4.9 6.5-10.4 6.2l-.9 5.2-3.2-.6.9-5.1-2.6-.5-.9 5.1-3.2-.6.9-5.2-6.3-1.1.7-3.8 2.4.4c1 .2 1.4-.2 1.6-1.1l2.7-15.3c.1-1-.2-1.4-1.2-1.6l-2.4-.4.7-3.8 6.3 1.1.9-5.1 3.2.6-.9 5 2.6.5.9-5 3.2.6-.9 5.1Zm-8.1 14.3-1.1 6.2 4.7.8c3 .5 5.1-.1 5.6-2.8.5-2.7-1.3-3.8-4.4-4.4l-4.8-.8Zm1.6-9.2-1 5.6 4.2.7c2.7.5 4.6-.1 5-2.5.4-2.3-1.1-3.2-3.9-3.7l-4.3-.7Z"/>
</svg>
