<svg width="64" height="64" viewBox="0 0 64 64" fill="none" xmlns="http://www.w3.org/2000/svg">
  <circle cx="32" cy="32" r="31" fill="#11161F"/>
  <circle cx="32" cy="32" r="30" stroke="#F0B90B" stroke-opacity=".8" stroke-width="2"/>
  <path fill="#F0B90B" d="M36.8 18c4.5.8 7.3 3.2 6.7 7-.4 2.7-1.9 4.2-4.3 4.9 3.3 1.2 4.9 3.6 4.2 7.4-.9 4.9-5 6.7-10.6 6.3l-.9 5.3-3.3-.6.9-5.2-2.7-.5-.9 5.2-3.3-.6.9-5.3-6.4-1.1.7-3.9 2.5.4c1 .2 1.4-.2 1.6-1.2l2.7-15.7c.1-1-.2-1.4-1.2-1.6l-2.5-.4.7-3.9 6.4 1.1.9-5.2 3.3.6-.9 5.1 2.7.5.9-5.1 3.3.6-.9 5.2Zm-8.2 14.6-1.1 6.4 4.8.8c3.1.5 5.2-.1 5.7-2.9.5-2.8-1.3-3.9-4.5-4.5l-4.9-.8Zm1.6-9.4-1 5.7 4.3.7c2.8.5 4.7-.1 5.1-2.6.4-2.4-1.1-3.3-4-3.8l-4.4-.8Z"/>
  <path stroke="#fff" stroke-opacity=".35" stroke-width="2" d="M21 13c-5.5 3.6-9 9.8-9 17 0 11.6 9.4 21 21 21 7.1 0 13.4-3.6 17.2-9"/>
  <path fill="#fff" fill-opacity=".5" d="m51 35 3 10-10-2.3 7-7.7Z"/>
</svg>
