<svg width="40" height="40" viewBox="0 0 40 40" fill="none" xmlns="http://www.w3.org/2000/svg">
<mask id="mask0_7379_14217" style="mask-type:luminance" maskUnits="userSpaceOnUse" x="0" y="0" width="40" height="40">
<path d="M39.5897 0.205078H0.205078V39.5897H39.5897V0.205078Z" fill="white"/>
</mask>
<g mask="url(#mask0_7379_14217)">
<path d="M19.8974 39.5897C30.7732 39.5897 39.5897 30.7732 39.5897 19.8974C39.5897 9.02161 30.7732 0.205078 19.8974 0.205078C9.02161 0.205078 0.205078 9.02161 0.205078 19.8974C0.205078 30.7732 9.02161 39.5897 19.8974 39.5897Z" fill="#0B53BF"/>
<path d="M24.082 24.5868C23.2204 24.9314 22.2851 25.1283 21.3866 25.1283C19.6073 25.1283 17.9297 24.3705 17.1281 22.5437H21.042L21.8051 20.6976H16.6726C16.6484 20.4433 16.6358 20.1768 16.6358 19.8976C16.6358 19.6183 16.6484 19.3518 16.6726 19.0976H22.4574L23.2204 17.2514H17.1281C17.9297 15.4246 19.6073 14.6668 21.3866 14.6668C22.2851 14.6668 23.2204 14.8637 24.082 15.2083L24.8697 13.3376C23.8112 12.7837 22.6174 12.5129 21.4235 12.5129C18.542 12.5129 15.6293 14.1239 14.5749 17.2514H12.6851V19.0976H14.1963C14.1738 19.3568 14.162 19.6235 14.162 19.8976C14.162 20.1716 14.1737 20.4384 14.1963 20.6976H12.6851V22.5437H14.5749C15.6293 25.6712 18.542 27.2822 21.4235 27.2822C22.6174 27.2822 23.8112 27.0114 24.8697 26.4576L24.082 24.5868Z" fill="white" stroke="#0B53BF" stroke-width="0.0123077" stroke-miterlimit="10"/>
<path d="M7.58971 19.8975C7.58971 14.3222 11.2943 9.62062 16.3528 8.09447V5.55908C9.90356 7.13447 5.12817 12.956 5.12817 19.8975C5.12817 26.8391 9.90356 32.6606 16.3528 34.236V31.7006C11.2943 30.1868 7.58971 25.4729 7.58971 19.8975Z" fill="white" stroke="#0B53BF" stroke-width="0.0123077" stroke-miterlimit="10"/>
<path d="M23.4419 5.55908V8.09447C28.5004 9.62062 32.205 14.3222 32.205 19.8975C32.205 25.4729 28.5004 30.1745 23.4419 31.7006V34.236C29.8911 32.6606 34.6665 26.8391 34.6665 19.8975C34.6665 12.956 29.8911 7.13447 23.4419 5.55908Z" fill="white" stroke="#0B53BF" stroke-width="0.0123077" stroke-miterlimit="10"/>
</g>
</svg>
