<svg width="40" height="40" viewBox="0 0 40 40" fill="none" xmlns="http://www.w3.org/2000/svg">
<g clip-path="url(#clip0_7379_14277)">
<mask id="mask0_7379_14277" style="mask-type:luminance" maskUnits="userSpaceOnUse" x="0" y="0" width="40" height="40">
<path d="M40 0H0V40H40V0Z" fill="white"/>
</mask>
<g mask="url(#mask0_7379_14277)">
<path d="M20 40C31.0457 40 40 31.0457 40 20C40 8.95432 31.0457 0 20 0C8.95432 0 0 8.95432 0 20C0 31.0457 8.95432 40 20 40Z" fill="#BAF2C9"/>
<path d="M26.1799 21.106C27.7984 20.289 28.8412 18.6513 28.8951 16.8388C28.8951 13.4442 26.2764 11.6499 20.7852 11.6499H17.6939V15.408C18.4936 15.3833 19.4272 15.3833 20.5184 15.3833C23.0157 15.3833 24.1552 16.1229 24.1552 17.8088C24.1689 18.2925 24.0386 18.7697 23.7791 19.1777C23.5304 19.6395 23.0832 19.961 22.5667 20.0512C21.9274 20.1423 21.2834 20.1907 20.6394 20.196C19.5692 20.196 18.5701 20.196 17.7996 20.1387H12.9167V31.2158H22.0931C26.9422 31.2158 29.4397 29.3487 29.4397 25.6873C29.4942 23.6042 28.1654 21.7372 26.1799 21.106ZM24.4584 26.8532C24.3482 27.1955 24.1524 27.5043 23.8884 27.7502C23.5039 27.905 23.0904 27.9762 22.6761 27.956H17.7659V23.4103H21.1722C23.5969 23.4103 24.6397 24.1372 24.6397 25.7493C24.6461 26.1245 24.5849 26.4988 24.4584 26.8532Z" fill="black"/>
<path d="M17.6937 7.91675H12.9175V11.6501H17.6937V7.91675Z" fill="black"/>
</g>
</g>
<defs>
<clipPath id="clip0_7379_14277">
<rect width="40" height="40" fill="white"/>
</clipPath>
</defs>
</svg>
