<svg width="40" height="40" viewBox="0 0 40 40" fill="none" xmlns="http://www.w3.org/2000/svg">
<mask id="mask0_7379_14345" style="mask-type:luminance" maskUnits="userSpaceOnUse" x="0" y="0" width="40" height="40">
<path d="M39.5897 0.205078H0.205078V39.5897H39.5897V0.205078Z" fill="white"/>
</mask>
<g mask="url(#mask0_7379_14345)">
<path d="M19.8974 39.5897C30.7732 39.5897 39.5897 30.7732 39.5897 19.8974C39.5897 9.02161 30.7732 0.205078 19.8974 0.205078C9.02161 0.205078 0.205078 9.02161 0.205078 19.8974C0.205078 30.7732 9.02161 39.5897 19.8974 39.5897Z" fill="#0B53BF"/>
<path d="M23.4421 5.55884V8.09422C28.5006 9.62038 32.2052 14.3219 32.2052 19.8973C32.2052 25.4727 28.5006 30.1742 23.4421 31.7004V34.2358C29.8914 32.6604 34.6668 26.8388 34.6668 19.8973C34.6668 12.9558 29.8914 7.13422 23.4421 5.55884Z" fill="white"/>
<path d="M7.58971 19.8973C7.58971 14.3219 11.2943 9.62038 16.3528 8.09422V5.55884C9.90356 7.13422 5.12817 12.9558 5.12817 19.8973C5.12817 26.8388 9.90356 32.6604 16.3528 34.2358V31.7004C11.2943 30.1865 7.58971 25.4727 7.58971 19.8973Z" fill="white"/>
<path d="M25.1897 22.642C25.1897 17.6081 17.3005 19.6758 17.3005 16.8943C17.3005 15.8974 18.1005 15.2574 19.6267 15.2574C21.4482 15.2574 22.0759 16.1435 22.2728 17.3374H24.7836C24.5596 15.0969 23.2737 13.6822 21.1282 13.2608V11.282H18.6667V13.1902C16.3163 13.4895 14.839 14.8582 14.839 16.8943C14.839 21.9528 22.7405 20.0574 22.7405 22.7897C22.7405 23.8235 21.7436 24.5128 20.0574 24.5128C17.8544 24.5128 17.1282 23.5404 16.8574 22.1989H14.4082C14.5668 24.6529 16.0801 26.1888 18.6667 26.5721V28.5128H21.1282V26.5979C23.6526 26.2718 25.1897 24.8032 25.1897 22.642Z" fill="white"/>
</g>
</svg>
