<svg width="64" height="64" viewBox="0 0 64 64" fill="none" xmlns="http://www.w3.org/2000/svg">
  <circle cx="32" cy="32" r="31" fill="#D6AD49"/>
  <circle cx="32" cy="32" r="30" stroke="white" stroke-opacity=".2" stroke-width="2"/>
  <path fill="#0A0E14" d="M17 18h30v7H35v7.2c6.8.4 11.8 1.9 11.8 3.7 0 1.9-5 3.4-11.8 3.8V49h-7v-9.3c-6.8-.4-11.8-1.9-11.8-3.8 0-1.8 5-3.3 11.8-3.7V25H17v-7Zm14.9 17.4c5.5 0 9.9-.6 9.9-1.4 0-.6-2.6-1.1-6.8-1.3v2.1h-7v-2.1c-4.2.2-6.8.7-6.8 1.3 0 .8 4.4 1.4 9.9 1.4Z"/>
  <path fill="#fff" fill-opacity=".72" d="M19 53 45 9h3L22 53h-3Z"/>
</svg>
